<?xml version="1.0" encoding="UTF-8" standalone="no"?>
<!-- Created with Inkscape (http://www.inkscape.org/) -->

<svg
   width="120"
   height="120"
   viewBox="0 0 120 120"
   version="1.1"
   id="svg1"
   xmlns="http://www.w3.org/2000/svg"
   xmlns:svg="http://www.w3.org/2000/svg">
  <defs
     id="defs1" />
  <g
     id="layer1">
    <g
       id="g8"
       transform="matrix(1.3289495,0,0,1.3289495,-19.736969,-19.736969)">
      <path
         d="m 97.486328,45.939453 -0.02734,0.05273 -3.597656,7.117188 -3.238281,6.404297 h 3.93164 c 0.0057,0.162074 0.01026,0.32419 0.01367,0.486328 C 94.568612,79.091568 79.091568,94.568612 60,94.568359 c -9.168021,-3.5e-5 -17.960668,-3.642151 -24.443359,-10.125 l -3.841797,3.841797 C 39.216616,95.786459 49.391224,100.00047 60,100 c 22.091257,0 40,-17.908743 40,-40 -0.0036,-0.162135 -0.0081,-0.324249 -0.01367,-0.486328 h 4.36328 z"
         style="fill:#ff5555;stroke:#000000"
         id="path7" />
      <path
         d="m 22.51367,74.060546 0.02734,-0.05273 3.597656,-7.117188 3.238281,-6.404297 h -3.93164 c -0.0057,-0.162074 -0.01026,-0.32419 -0.01367,-0.486328 -2.51e-4,-19.091572 15.476793,-34.568616 34.568361,-34.568363 9.168021,3.5e-5 17.960668,3.642151 24.443359,10.125 l 3.841797,-3.841797 C 80.783382,24.21354 70.608774,19.999529 59.999998,19.999999 c -22.091257,0 -40,17.908743 -40,40 0.0036,0.162135 0.0081,0.324249 0.01367,0.486328 h -4.36328 z"
         style="fill:#ff5555;stroke:#000000"
         id="path8" />
    </g>
  </g>
</svg>
