<?xml version="1.0" encoding="UTF-8" standalone="no"?>
<!-- Created with Inkscape (http://www.inkscape.org/) -->

<svg
   width="512"
   height="512"
   viewBox="0 0 512 512"
   version="1.1"
   id="svg1"
   xml:space="preserve"
   inkscape:export-filename="UpDownGate.png"
   inkscape:export-xdpi="96"
   inkscape:export-ydpi="96"
   xmlns:inkscape="http://www.inkscape.org/namespaces/inkscape"
   xmlns:sodipodi="http://sodipodi.sourceforge.net/DTD/sodipodi-0.dtd"
   xmlns="http://www.w3.org/2000/svg"
   xmlns:svg="http://www.w3.org/2000/svg"><sodipodi:namedview
     id="namedview1"
     pagecolor="#ffffff"
     bordercolor="#000000"
     borderopacity="0.25"
     inkscape:showpageshadow="2"
     inkscape:pageopacity="0.0"
     inkscape:pagecheckerboard="0"
     inkscape:deskcolor="#d1d1d1"
     inkscape:document-units="px"
     showguides="true"
     showgrid="false"><sodipodi:guide
       position="250,247"
       orientation="0,-1"
       id="guide1"
       inkscape:locked="false" /><inkscape:grid
       id="grid1"
       units="px"
       originx="256"
       originy="256"
       spacingx="1"
       spacingy="1"
       empcolor="#0099e5"
       empopacity="0.30196078"
       color="#0099e5"
       opacity="0.14901961"
       empspacing="5"
       dotted="false"
       gridanglex="30"
       gridanglez="30"
       visible="false" /><sodipodi:guide
       position="265,492"
       orientation="1,0"
       id="guide2"
       inkscape:locked="false" /><sodipodi:guide
       position="16,401"
       orientation="1,0"
       id="guide3"
       inkscape:locked="false" /><sodipodi:guide
       position="496,431"
       orientation="1,0"
       id="guide4"
       inkscape:locked="false" /></sodipodi:namedview><defs
     id="defs1"><inkscape:path-effect
       effect="fillet_chamfer"
       id="path-effect10"
       is_visible="true"
       lpeversion="1"
       nodesatellites_param="F,0,0,1,0,9.9106021,0,1 @ F,0,1,1,0,9.9106021,0,1 @ F,0,1,1,0,9.9106021,0,1"
       radius="0"
       unit="px"
       method="auto"
       mode="F"
       chamfer_steps="1"
       flexible="false"
       use_knot_distance="true"
       apply_no_radius="true"
       apply_with_radius="true"
       only_selected="false"
       hide_knots="false" /><inkscape:path-effect
       effect="fillet_chamfer"
       id="path-effect8"
       is_visible="true"
       lpeversion="1"
       nodesatellites_param="F,0,0,1,0,9.9106021,0,1 @ F,0,1,1,0,9.9106021,0,1 @ F,0,1,1,0,9.9106021,0,1"
       radius="0"
       unit="px"
       method="auto"
       mode="F"
       chamfer_steps="1"
       flexible="false"
       use_knot_distance="true"
       apply_no_radius="true"
       apply_with_radius="true"
       only_selected="false"
       hide_knots="false" /><inkscape:path-effect
       effect="fillet_chamfer"
       id="path-effect6"
       is_visible="true"
       lpeversion="1"
       nodesatellites_param="F,0,0,1,0,9.9106021,0,1 @ F,0,1,1,0,9.9106021,0,1 @ F,0,1,1,0,9.9106021,0,1"
       radius="0"
       unit="px"
       method="auto"
       mode="F"
       chamfer_steps="1"
       flexible="false"
       use_knot_distance="true"
       apply_no_radius="true"
       apply_with_radius="true"
       only_selected="false"
       hide_knots="false" /><inkscape:path-effect
       effect="bspline"
       id="path-effect60"
       is_visible="true"
       lpeversion="1.3"
       weight="33.333333"
       steps="2"
       helper_size="0"
       apply_no_weight="true"
       apply_with_weight="true"
       only_selected="false"
       uniform="false" /><inkscape:path-effect
       effect="bspline"
       id="path-effect54"
       is_visible="true"
       lpeversion="1.3"
       weight="33.333333"
       steps="2"
       helper_size="0"
       apply_no_weight="true"
       apply_with_weight="true"
       only_selected="false"
       uniform="false" /><inkscape:path-effect
       effect="fillet_chamfer"
       id="path-effect1"
       is_visible="true"
       lpeversion="1"
       nodesatellites_param="F,0,0,1,0,9.9106021,0,1 @ F,0,1,1,0,9.9106021,0,1 @ F,0,1,1,0,9.9106021,0,1"
       radius="0"
       unit="px"
       method="auto"
       mode="F"
       chamfer_steps="1"
       flexible="false"
       use_knot_distance="true"
       apply_no_radius="true"
       apply_with_radius="true"
       only_selected="false"
       hide_knots="false" /></defs><g
     inkscape:label="Layer 1"
     inkscape:groupmode="layer"
     id="layer1"><g
       id="g64"
       inkscape:transform-center-y="-34.232081"
       transform="matrix(0.93983842,0,0,0.93983842,16.325351,201.13137)"
       inkscape:transform-center-x="-4.6009091e-06"><path
         style="fill:none;stroke:#000000"
         d="M 0,90 C 9.9999999,86.666667 20,83.333333 35.0002,85.000067 50.0004,86.6668 70,93.333333 85.0001,94.999967 100.0002,96.6666 110,93.333333 120,90"
         id="path54"
         inkscape:original-d="m 0,90 c 10,-3.333333 20,-6.666667 30,-10 20.0004,6.6668 40,13.333333 60,20 10.0002,-3.3334 20,-6.666667 30,-10"
         inkscape:path-effect="#path-effect54" /><g
         id="g63"
         style="fill:#ff7f2a"><path
           d="M 59.851562,67.957031 A 20,20 0 0 0 40.46875,83.652344 20,20 0 0 0 40.318359,90.757812 c 11.397332,1.90566 24.708519,5.723604 36.410157,7.933594 A 20,20 0 0 0 79.53125,92.261719 20,20 0 0 0 64.304687,68.425781 20,20 0 0 0 59.851562,67.957031 Z"
           style="fill:#ff7f2a;stroke:#000000"
           id="path63" /><path
           style="fill:#ff7f2a;stroke:#000000"
           d="M 64.304796,68.425365 75.703164,16.710013"
           id="path56" /><rect
           style="fill:#ff7f2a;stroke:#000000"
           id="rect56"
           width="30"
           height="20"
           x="77.525436"
           y="0.024015019"
           transform="rotate(12.429598)" /></g><path
         style="fill:none;stroke:#000000"
         d="M 0,90 C 9.9999999,86.666667 20,83.333333 35.0002,85.000067 50.0004,86.6668 70,93.333333 85.0001,94.999967 100.0002,96.6666 110,93.333333 120,90"
         id="path58"
         transform="translate(0,5)"
         inkscape:original-d="m 0,90 c 10,-3.333333 20,-6.666667 30,-10 20.0004,6.6668 40,13.333333 60,20 10.0002,-3.3334 20,-6.666667 30,-10"
         inkscape:path-effect="#path-effect60" /></g><path
       style="fill:#ff7f2a;stroke:#000000;stroke-width:0.753116"
       d="M 458.34409,299.5964 V 265 c 0,-24.71168 18.82795,-44.48104 18.82795,-44.48104 0,0 18.82796,19.76936 18.82796,44.48104 v 34.5964 z"
       id="path5"
       sodipodi:nodetypes="cccccc"
       inkscape:export-filename="startschiff.png"
       inkscape:export-xdpi="96"
       inkscape:export-ydpi="96" /><path
       id="path1"
       style="fill:#ffff00;stroke:#000000"
       inkscape:transform-center-y="-10.850994"
       transform="matrix(0.96083096,0,0,1.0767205,212.1543,-12.222181)"
       d="m 80,85.155646 -50,-10e-7 a 5.7218889,5.7218889 60 0 1 -4.955301,-8.582833 l 25,-43.30127 a 5.7218888,5.7218888 2.051518e-7 0 1 9.910602,0 l 25,43.301271 A 5.7218887,5.7218887 120 0 1 80,85.155646 Z"
       sodipodi:nodetypes="cccc"
       inkscape:path-effect="#path-effect1"
       inkscape:original-d="M 89.910602,85.155646 20.089398,85.155645 55,24.688709 Z"
       inkscape:export-filename="ablauf.svg"
       inkscape:export-xdpi="94.819702"
       inkscape:export-ydpi="94.819702"
       inkscape:transform-center-x="4.8111625e-06" /><path
       id="path4"
       style="fill:#ffff00;stroke:#000000"
       inkscape:transform-center-y="-10.850994"
       transform="matrix(0.96083096,0,0,1.0767205,62.572211,75.851422)"
       d="m 80,85.155646 -50,-10e-7 a 5.7218889,5.7218889 60 0 1 -4.955301,-8.582833 l 25,-43.30127 a 5.7218888,5.7218888 2.051518e-7 0 1 9.910602,0 l 25,43.301271 A 5.7218887,5.7218887 120 0 1 80,85.155646 Z"
       sodipodi:nodetypes="cccc"
       inkscape:path-effect="#path-effect6"
       inkscape:original-d="M 89.910602,85.155646 20.089398,85.155645 55,24.688709 Z"
       inkscape:export-filename="ablauf.svg"
       inkscape:export-xdpi="94.819702"
       inkscape:export-ydpi="94.819702"
       inkscape:transform-center-x="4.8111625e-06" /><path
       id="path6"
       style="fill:#ffff00;stroke:#000000"
       inkscape:transform-center-y="-10.850994"
       transform="matrix(0.96083096,0,0,1.0767205,85.21566,380.67398)"
       d="m 80,85.155646 -50,-10e-7 a 5.7218889,5.7218889 60 0 1 -4.955301,-8.582833 l 25,-43.30127 a 5.7218888,5.7218888 2.051518e-7 0 1 9.910602,0 l 25,43.301271 A 5.7218887,5.7218887 120 0 1 80,85.155646 Z"
       sodipodi:nodetypes="cccc"
       inkscape:path-effect="#path-effect8"
       inkscape:original-d="M 89.910602,85.155646 20.089398,85.155645 55,24.688709 Z"
       inkscape:export-filename="ablauf.svg"
       inkscape:export-xdpi="94.819702"
       inkscape:export-ydpi="94.819702"
       inkscape:transform-center-x="4.8111625e-06" /><path
       id="path8"
       style="fill:#ffff00;stroke:#000000"
       inkscape:transform-center-y="-10.850994"
       transform="matrix(0.96083096,0,0,1.0767205,339.09294,380.67398)"
       d="m 80,85.155646 -50,-10e-7 a 5.7218889,5.7218889 60 0 1 -4.955301,-8.582833 l 25,-43.30127 a 5.7218888,5.7218888 2.051518e-7 0 1 9.910602,0 l 25,43.301271 A 5.7218887,5.7218887 120 0 1 80,85.155646 Z"
       sodipodi:nodetypes="cccc"
       inkscape:path-effect="#path-effect10"
       inkscape:original-d="M 89.910602,85.155646 20.089398,85.155645 55,24.688709 Z"
       inkscape:export-filename="ablauf.svg"
       inkscape:export-xdpi="94.819702"
       inkscape:export-ydpi="94.819702"
       inkscape:transform-center-x="4.8111625e-06" /></g></svg>
